# xmcd
#
# Track frame offsets: 
#        150
#        22582
#        45128
#        69039
#        90157
#        111575
#        134142
#        151930
#        170540
#        191317
#        209036
#        233156
#
# Disc length: 3299 seconds
#
# Revision: 0
# Processed by: cddbd v1.5.2PL0 Copyright (c) Steve Scherf et al.
# Submitted via: ExactAudioCopy v1.3
#
DISCID=900ce10c
DTITLE=Dave Steffen Band - Eve Of Autumn
DYEAR=2004
DGENRE=Rockin' Blues
TTITLE0=Phantom Lady
TTITLE1=Sometimes
TTITLE2=Eve Of Autumn
TTITLE3=Workin' Man's Blues
TTITLE4=Beep Beep
TTITLE5=I'm Goin' Home
TTITLE6=Troubled Man
TTITLE7=Could It Be
TTITLE8=Wayward Wind
TTITLE9=Southbound Train
TTITLE10=Long Cold Rainy Night
TTITLE11=Doin' Time
EXTD=
EXTT0=
EXTT1=
EXTT2=
EXTT3=
EXTT4=
EXTT5=
EXTT6=
EXTT7=
EXTT8=
EXTT9=
EXTT10=
EXTT11=
PLAYORDER=
